<svg width="30" height="30" viewBox="0 0 30 30" fill="none" xmlns="http://www.w3.org/2000/svg">
<rect width="30" height="30" fill="#F19F1F"/>
<path d="M23.5192 20.0875C23.0961 18.8808 22.1101 18.2692 21.1582 17.6779C20.3298 17.163 19.5476 16.6765 19.0361 15.8029C17.626 13.3832 16.8514 11.9231 14.5413 11.9231C12.2313 11.9231 11.4543 13.3837 10.0409 15.8024C9.52885 16.6779 8.7428 17.1654 7.91347 17.6813C6.96155 18.2731 5.97742 18.8832 5.5529 20.0875C5.38767 20.5218 5.30453 20.983 5.3077 21.4476C5.3077 23.4063 6.8678 25 8.59616 25C10.3245 25 12.6014 24.1284 14.5462 24.1284C16.4909 24.1284 18.7361 25 20.4861 25C22.2361 25 23.7692 23.4063 23.7692 21.4476C23.7706 20.9827 23.6858 20.5215 23.5192 20.0875Z" fill="white"/>
<path d="M5.69231 16.5384C7.17922 16.5384 8.38461 14.9886 8.38461 13.0769C8.38461 11.1651 7.17922 9.61536 5.69231 9.61536C4.20539 9.61536 3 11.1651 3 13.0769C3 14.9886 4.20539 16.5384 5.69231 16.5384Z" fill="white"/>
<path d="M11.0769 11.9231C12.5639 11.9231 13.7693 10.3733 13.7693 8.46154C13.7693 6.54978 12.5639 5 11.0769 5C9.59003 5 8.38464 6.54978 8.38464 8.46154C8.38464 10.3733 9.59003 11.9231 11.0769 11.9231Z" fill="white"/>
<path d="M18 11.9231C19.487 11.9231 20.6923 10.3733 20.6923 8.46154C20.6923 6.54978 19.487 5 18 5C16.5131 5 15.3077 6.54978 15.3077 8.46154C15.3077 10.3733 16.5131 11.9231 18 11.9231Z" fill="white"/>
<path d="M23.3846 16.5384C24.8715 16.5384 26.0769 14.9886 26.0769 13.0769C26.0769 11.1651 24.8715 9.61536 23.3846 9.61536C21.8976 9.61536 20.6923 11.1651 20.6923 13.0769C20.6923 14.9886 21.8976 16.5384 23.3846 16.5384Z" fill="white"/>
</svg>
